<?xml version="1.0" encoding="UTF-8" standalone="no"?>
<!DOCTYPE svg PUBLIC "-//W3C//DTD SVG 1.1//EN" "http://www.w3.org/Graphics/SVG/1.1/DTD/svg11.dtd">
<!-- Created with Vectornator (http://vectornator.io/) -->
<svg height="100%" stroke-miterlimit="10" style="fill-rule:nonzero;clip-rule:evenodd;stroke-linecap:round;stroke-linejoin:round;" version="1.1" viewBox="0 0 532.312 436.574" width="100%" xml:space="preserve" xmlns="http://www.w3.org/2000/svg" xmlns:vectornator="http://vectornator.io" xmlns:xlink="http://www.w3.org/1999/xlink">
<defs/>
<g id="Layer-1" vectornator:layerName="Layer 1">
<path d="M125.282 234.188C125.282 143.262 198.992 69.5521 289.918 69.5521C380.843 69.5521 454.553 143.262 454.553 234.188C454.553 325.114 380.843 398.824 289.918 398.824C198.992 398.824 125.282 325.114 125.282 234.188Z" fill="#62737c" fill-rule="nonzero" opacity="1" stroke="none"/>
<path d="M226.73 143.043C243.901 159.988 301.395 206.161 312.101 267.969C320.6 317.039 274.192 360.59 285.179 360.575C294.74 360.562 300.588 352.464 304.534 339.614C310.753 319.365 312.25 287.315 316.116 256.501C321.673 212.21 304.465 174.926 355.17 169.828" fill="none" opacity="1" stroke="#b6e297" stroke-linecap="round" stroke-linejoin="round" stroke-width="40"/>
<path d="M390.26 170.216L391.214 170.216L394.392 172.269L394.772 172.594L395.151 172.915L395.53 173.226L395.887 173.508L396.211 173.699L396.54 173.929L396.908 174.269L397.326 174.714L397.739 175.144L398.096 175.451L398.452 175.757L398.731 175.996L398.999 176.226L399.166 176.369L399.283 176.369L399.451 176.422L399.501 176.566L399.501 176.776L399.601 176.915L399.785 176.934L399.785 176.934" fill="none" opacity="1" stroke="#000000" stroke-linecap="round" stroke-linejoin="round" stroke-width="2"/>
<path d="M390.685 170.078C390.685 166.481 393.829 160.238 396.133 157.329" fill="none" opacity="1" stroke="#000000" stroke-linecap="round" stroke-linejoin="round" stroke-width="2"/>
<path d="M376.042 170.92C380.448 170.92 384.882 170.279 389.66 170.279" fill="none" opacity="1" stroke="#000000" stroke-linecap="round" stroke-linejoin="round" stroke-width="2"/>
<path d="M362.626 163.759L362.626 164.352L362.626 164.869L362.626 165.065L362.626 165.309L362.626 165.539L362.626 165.926L362.626 166.505L362.626 167.156L362.626 167.811L362.626 168.462L362.626 169.113L362.626 169.505L362.626 169.702L362.626 169.845L362.76 169.859L362.55 163.662L362.908 169.955L362.908 170.099L362.908 170.276" fill="none" opacity="1" stroke="#000000" stroke-linecap="round" stroke-linejoin="round" stroke-width="8"/>
<path d="M348.098 163.986L348.098 164.397L348.098 165.704L348.098 165.933L348.098 166.177L348.098 166.464L348.098 166.79L348.098 167.173L348.098 167.699L348.098 168.35L348.098 169.001L348.098 169.498L348.098 170.01L348.098 170.154L348.098 170.297L348.098 170.297" fill="none" opacity="1" stroke="#000000" stroke-linecap="round" stroke-linejoin="round" stroke-width="8"/>
<path d="M462.2 134.08C462.2 155.397 429.646 196.698 429.646 196.698C429.646 196.698 397.093 155.397 397.093 134.08C397.093 114.213 411.667 98.1084 429.646 98.1084C447.625 98.1084 462.2 114.213 462.2 134.08Z" fill="#e9514e" fill-rule="nonzero" opacity="1" stroke="none"/>
<path d="M429.646 113.43C419.323 113.426 410.952 122.672 410.952 134.08C410.952 145.488 419.323 154.735 429.646 154.731C439.97 154.735 448.341 145.488 448.341 134.08C448.341 122.672 439.97 113.426 429.646 113.43Z" fill="#fefdef" fill-rule="nonzero" opacity="1" stroke="none"/>
<path d="M429.646 155.397C419.01 155.397 410.355 145.834 410.355 134.08C410.355 122.327 419.01 112.764 429.646 112.764C440.283 112.764 448.937 122.327 448.937 134.08C448.937 145.834 440.283 155.397 429.646 155.397ZM429.646 114.096C419.674 114.096 411.561 123.061 411.561 134.08C411.561 145.1 419.674 154.065 429.646 154.065C439.618 154.065 447.731 145.1 447.731 134.08C447.731 123.061 439.618 114.096 429.646 114.096Z" fill="#1f212b" fill-rule="nonzero" opacity="1" stroke="none"/>
<path d="M429.646 155.397C419.01 155.397 410.355 145.834 410.355 134.08C410.355 122.327 419.01 112.764 429.646 112.764C440.283 112.764 448.937 122.327 448.937 134.08C448.937 145.834 440.283 155.397 429.646 155.397ZM429.646 114.096C419.674 114.096 411.561 123.061 411.561 134.08C411.561 145.1 419.674 154.065 429.646 154.065C439.618 154.065 447.731 145.1 447.731 134.08C447.731 123.061 439.618 114.096 429.646 114.096Z" fill="#1f212b" fill-rule="nonzero" opacity="1" stroke="none"/>
<path d="M429.646 198.03C429.298 198.03 428.966 197.864 428.737 197.573C427.395 195.872 395.887 155.647 395.887 134.08C395.887 113.511 411.032 96.7761 429.646 96.7761C448.261 96.7761 463.405 113.511 463.405 134.08C463.405 155.647 431.897 195.872 430.555 197.573C430.326 197.864 429.995 198.03 429.646 198.03ZM429.646 99.4407C412.362 99.4407 398.298 114.979 398.298 134.08C398.298 152.682 424.401 187.782 429.646 194.645C434.891 187.782 460.994 152.682 460.994 134.08C460.994 114.979 446.931 99.4407 429.646 99.4407Z" fill="#ead6c7" fill-rule="nonzero" opacity="1" stroke="none"/>
<path d="M429.646 198.03C429.298 198.03 428.966 197.864 428.737 197.573C427.395 195.872 395.887 155.647 395.887 134.08C395.887 113.511 411.032 96.7761 429.646 96.7761C448.261 96.7761 463.405 113.511 463.405 134.08C463.405 155.647 431.897 195.872 430.555 197.573C430.326 197.864 429.995 198.03 429.646 198.03ZM429.646 99.4407C412.362 99.4407 398.298 114.979 398.298 134.08C398.298 152.682 424.401 187.782 429.646 194.645C434.891 187.782 460.994 152.682 460.994 134.08C460.994 114.979 446.931 99.4407 429.646 99.4407Z" fill="#1f212b" fill-rule="nonzero" opacity="1" stroke="none"/>
</g>
</svg>
